<svg width="104" height="24" viewBox="0 0 104 24" fill="none" xmlns="http://www.w3.org/2000/svg">
<path d="M0.46875 23L7.82812 0.453125H16.1406L23.5 23H16.5312L15.3594 18.5156H8.60938L7.4375 23H0.46875ZM11.9219 5.82812L9.82812 13.8438H14.1406L12.0469 5.82812H11.9219ZM25.2188 23V18.8438L35.2656 5.82812V5.70312H25.3125V0.453125H42.9844V4.59375L32.9688 17.625V17.75H43.3594V23H25.2188ZM46.8125 23V0.453125H55.3594C59.2188 0.453125 61.8281 2.70312 61.8281 6.07812V6.10938C61.8281 8.4375 60.0781 10.7031 57.75 11.0312V11.0938C61 11.4688 62.9688 13.6562 62.9688 16.6406V16.6719C62.9688 20.6406 60.125 23 55.3281 23H46.8125ZM54.7188 2.9375H49.625V10.1719H53.8438C57.1719 10.1719 58.9844 8.84375 58.9844 6.40625V6.375C58.9844 4.15625 57.4375 2.9375 54.7188 2.9375ZM54.6406 12.5938H49.625V20.5156H54.9062C58.2812 20.5156 60.0781 19.1562 60.0781 16.5625V16.5312C60.0781 13.9219 58.2344 12.5938 54.6406 12.5938ZM75.6875 23.375C69.2812 23.375 65.2812 18.8906 65.2812 11.7344V11.7031C65.2812 4.5625 69.2969 0.078125 75.6875 0.078125C82.0625 0.078125 86.0625 4.5625 86.0625 11.7031V11.7344C86.0625 18.8906 82.0781 23.375 75.6875 23.375ZM75.6875 20.7812C80.3281 20.7812 83.1875 17.2344 83.1875 11.7344V11.7031C83.1875 6.17188 80.2812 2.67188 75.6875 2.67188C71.0781 2.67188 68.1562 6.15625 68.1562 11.7031V11.7344C68.1562 17.2812 71.0625 20.7812 75.6875 20.7812ZM93.8594 23V2.98438H86.75V0.453125H103.781V2.98438H96.6719V23H93.8594Z" fill="#FD684F"/>
</svg>
